<svg xmlns:dc="http://purl.org/dc/elements/1.1/" xmlns:cc="http://creativecommons.org/ns#" xmlns:rdf="http://www.w3.org/1999/02/22-rdf-syntax-ns#" xmlns:svg="http://www.w3.org/2000/svg" xmlns="http://www.w3.org/2000/svg" xmlns:sodipodi="http://sodipodi.sourceforge.net/DTD/sodipodi-0.dtd" xmlns:inkscape="http://www.inkscape.org/namespaces/inkscape" viewBox="0 0 26 32.5" version="1.1" x="0px" y="0px"><g transform="translate(0,-1026.3622)"><g transform="matrix(1.0664186,0,0,1.0664186,58.689952,71.970494)"><g transform="translate(-56.000005,-133)"><path style="color:#000000;font-style:normal;font-variant:normal;font-weight:normal;font-stretch:normal;font-size:medium;line-height:normal;font-family:sans-serif;text-indent:0;text-align:start;text-decoration:none;text-decoration-line:none;text-decoration-style:solid;text-decoration-color:#000000;letter-spacing:normal;word-spacing:normal;text-transform:none;direction:ltr;block-progression:tb;writing-mode:lr-tb;baseline-shift:baseline;text-anchor:start;white-space:normal;clip-rule:nonzero;display:inline;overflow:visible;visibility:visible;opacity:1;isolation:auto;mix-blend-mode:normal;color-interpolation:sRGB;color-interpolation-filters:linearRGB;solid-color:#000000;solid-opacity:1;fill:#000000;fill-opacity:1;fill-rule:evenodd;stroke:none;stroke-width:0.93771809px;stroke-linecap:round;stroke-linejoin:round;stroke-miterlimit:4;stroke-dasharray:none;stroke-dashoffset:0;stroke-opacity:1;color-rendering:auto;image-rendering:auto;shape-rendering:auto;text-rendering:auto;enable-background:accumulate" d="M 13 0 C 5.8262202 0 0 5.8262021 0 13 C 0 20.173798 5.8262202 26 13 26 C 20.173779 26 26 20.173798 26 13 C 26 5.8262021 20.173779 0 13 0 z M 13 1 C 19.633339 1 25 6.366663 25 13 C 25 19.633337 19.633339 25 13 25 C 6.3666609 25 1 19.633337 1 13 C 1 6.366663 6.3666609 1 13 1 z M 13 6 C 11.206907 6 9.4141845 6.6834924 8.0488281 8.0488281 C 5.3181304 10.779606 5.3181304 15.2205 8.0488281 17.951172 C 10.779541 20.68195 15.22046 20.68195 17.951172 17.951172 C 20.681885 15.2205 20.681877 10.779606 17.951172 8.0488281 C 16.585813 6.6834924 14.793093 6 13 6 z M 13 6.9941406 C 14.535159 6.9941406 16.069855 7.5816259 17.244141 8.7558594 C 19.59269 11.104433 19.592705 14.895567 17.244141 17.244141 C 14.895575 19.592714 11.104424 19.592714 8.7558594 17.244141 C 6.4073102 14.895567 6.4073025 11.104433 8.7558594 8.7558594 C 9.9301413 7.5816259 11.464841 6.9941406 13 6.9941406 z M 15.453125 10.021484 A 0.50005002 0.50005002 0 0 0 15.109375 10.173828 L 12.996094 12.294922 L 10.875 10.179688 A 0.50005002 0.50005002 0 0 0 10.515625 10.03125 A 0.50005002 0.50005002 0 0 0 10.169922 10.888672 L 12.291016 13.003906 L 10.175781 15.125 A 0.50005002 0.50005002 0 1 0 10.882812 15.832031 L 12.998047 13.708984 L 15.119141 15.824219 A 0.50005002 0.50005002 0 1 0 15.826172 15.117188 L 13.705078 13.001953 L 15.818359 10.880859 A 0.50005002 0.50005002 0 0 0 15.453125 10.021484 z " transform="matrix(0.93771808,0,0,0.93771808,0.96537601,1027.9504)"/></g></g></g><text x="0" y="41" fill="#000000" font-size="5px" font-weight="bold" font-family="'Helvetica Neue', Helvetica, Arial-Unicode, Arial, Sans-serif">Created by Chameleon Design</text><text x="0" y="46" fill="#000000" font-size="5px" font-weight="bold" font-family="'Helvetica Neue', Helvetica, Arial-Unicode, Arial, Sans-serif">from the Noun Project</text></svg>