<?xml version="1.0" encoding="utf-8"?>
<!-- Generator: Adobe Illustrator 24.1.0, SVG Export Plug-In . SVG Version: 6.00 Build 0)  -->
<svg version="1.1" id="Layer_1" xmlns="http://www.w3.org/2000/svg" xmlns:xlink="http://www.w3.org/1999/xlink" x="0px" y="0px"
	 viewBox="0 0 110 110" style="enable-background:new 0 0 110 110;" xml:space="preserve">
<g>
	<path d="M55,10.8c-24.4,0-44.2,19.8-44.2,44.2c0,24.4,19.8,44.2,44.2,44.2c24.4,0,44.2-19.8,44.2-44.2S79.4,10.8,55,10.8z M55,95.2
		c-22.2,0-40.2-18-40.2-40.2c0-22.2,18-40.2,40.2-40.2s40.2,18,40.2,40.2S77.2,95.2,55,95.2z"/>
	<path d="M55,25.2c-16.5,0-29.8,13.4-29.8,29.8S38.5,84.8,55,84.8S84.8,71.5,84.8,55S71.5,25.2,55,25.2z M55,80.8
		c-14.2,0-25.8-11.6-25.8-25.8S40.8,29.2,55,29.2S80.8,40.8,80.8,55S69.2,80.8,55,80.8z"/>
	<path d="M55,43.8c-6.2,0-11.2,5-11.2,11.2s5,11.2,11.2,11.2s11.2-5,11.2-11.2S61.2,43.8,55,43.8z"/>
</g>
</svg>
